<svg xmlns="http://www.w3.org/2000/svg" viewBox="0 0 1411.13 1047.87">
    <path d="M651.37,1048.1V615.62q0-99.2-9.86-146.29a232.43,232.43,0,0,0-36.79-86.17q-26.79-38.81-80-63.77c-35.35-16.75-74.88-25.13-119-25.13-85.62,0-159.41,37-221,110.4V.23H-6.48V1048.1h191.1l.19-369.27q-.28-92.91,17.31-140.46,17.22-47.53,54.84-71.23c24.76-15.67,53.19-23.69,84.89-23.69,27.68,0,50.63,6.21,69,18.59a95.44,95.44,0,0,1,38.44,49.55c7.28,20.77,10.75,69.78,10.75,147V1048.1Z"/>
    <path d="M1202.61,511.59q11,31.16,10.93,147V1048.1h191.11V615.62q0-99.2-9.84-146.29A233,233,0,0,0,1358,383.16q-26.76-38.81-79.77-63.77-53.32-25.12-119.16-25.13c-85.61,0-159.41,37-221,110.4V.23H747V1048.1H938.1V678.83q0-92.91,17.29-140.46,17.5-47.53,54.84-71.23c24.78-15.67,53.19-23.69,84.89-23.69,27.68,0,50.83,6.21,69,18.59A95.31,95.31,0,0,1,1202.61,511.59Z"/>
</svg>